<?xml version="1.0" standalone="no"?>
<!DOCTYPE svg PUBLIC "-//W3C//DTD SVG 1.1//EN" "http://www.w3.org/Graphics/SVG/1.1/DTD/svg11.dtd" >
<svg xmlns="http://www.w3.org/2000/svg" xmlns:xlink="http://www.w3.org/1999/xlink" version="1.1">
<metadata>
Created by FontForge 20170731 at Fri May 14 15:59:02 2021
 By Aleksey,,,
Copyright (c) BPG InfoTech, 2007. All rights reserved.
</metadata>
<defs>
<font id="BPGNinoMkhedruli" horiz-adv-x="809" >
  <font-face 
    font-family="BPG Nino Mkhedruli"
    font-weight="400"
    font-style="italic"
    font-stretch="normal"
    units-per-em="2048"
    panose-1="2 0 5 6 0 0 0 2 0 4"
    ascent="1638"
    descent="-410"
    x-height="1020"
    cap-height="1502"
    bbox="-23 -410 2311 1650"
    underline-thickness="48"
    underline-position="-147"
    slope="-25"
    unicode-range="U+0020-2122"
  />
<missing-glyph horiz-adv-x="1735" 
d="M337 137v1269h1145v-1269h-1145zM308 98h1202v1347h-1202v-1347z" />
    <glyph glyph-name=".notdef" horiz-adv-x="1735" 
d="M337 137v1269h1145v-1269h-1145zM308 98h1202v1347h-1202v-1347z" />
    <glyph glyph-name=".null" horiz-adv-x="0" 
 />
    <glyph glyph-name="nonmarkingreturn" horiz-adv-x="643" 
 />
    <glyph glyph-name="space" unicode=" " horiz-adv-x="399" 
 />
    <glyph glyph-name="exclam" unicode="!" horiz-adv-x="557" 
d="M218 154h153v144h-153v-144zM267 509h59l52 728v368h-165v-368v-2z" />
    <glyph glyph-name="quotedbl" unicode="&#x22;" horiz-adv-x="616" 
d="M456 1241h41l43 214v176h-126v-172zM146 1241h51l35 218v172h-127v-176z" />
    <glyph glyph-name="numbersign" unicode="#" horiz-adv-x="1806" 
d="M1757 320h-435v-100h435v100zM1535 971q66 0 107 -43t41 -103q0 -67 -38 -106.5t-110 -39.5q-61 0 -99.5 42t-38.5 106q0 56 39.5 100t98.5 44zM1535 1071q-104 0 -166 -73t-62 -173q0 -106 62.5 -179t165.5 -73q112 0 177 71.5t65 178.5q0 100 -66 174t-176 74z
M1297 1517q46 0 87 -40t44 -84h101q-9 94 -77.5 159t-154.5 65q-83 0 -148 -71t-65 -165v-1008l-591 1182h-304v-102h201v-1061q0 -62 -34 -95.5t-89 -33.5q-38 0 -76.5 35t-44.5 86h-89q11 -93 72.5 -160.5t147.5 -67.5q89 0 150 71.5t61 164.5v956l593 -1192h101v1225
q0 50 33.5 93t81.5 43z" />
    <glyph glyph-name="dollar" unicode="$" horiz-adv-x="998" 
d="M685 554l-24 2q-33 18 -107 60.5t-113 64.5q-160 88 -210 137.5t-50 119.5q0 53 41.5 100t138.5 99q62 -49 207 -133q67 -40 100.5 -60.5t70.5 -47t53 -44.5q58 -74 58 -121q0 -46 -41.5 -94t-123.5 -83zM263 295l-111 -16q31 -130 128 -200.5t254 -70.5q154 0 251 77.5
t97 183.5q0 67 -41.5 125t-134.5 123q147 59 181 95q27 27 44 69.5t17 83.5q0 127 -119 210q-102 69 -197 121q-238 127 -308 193q-41 41 -41 102q0 66 67.5 112t160.5 46q99 0 156.5 -41.5t79.5 -146.5l115 14q-61 256 -365 256q-140 0 -228 -74.5t-88 -179.5
q0 -101 145 -218q-131 -44 -185.5 -101.5t-54.5 -132.5q0 -108 121 -221q48 -41 193 -121q246 -133 331 -218q43 -43 43 -96q0 -73 -68 -124t-172 -51q-113 0 -179 47.5t-92 153.5z" />
    <glyph glyph-name="percent" unicode="%" horiz-adv-x="1652" 
d="M365 99h88l860 1524h-84zM412 1547q97 0 154.5 -68t57.5 -217q0 -157 -56.5 -230.5t-155.5 -73.5q-100 0 -157.5 68.5t-57.5 215.5q0 89 16 150.5t46.5 94t67.5 46.5t85 14zM1266 763q96 0 155 -70t59 -217q0 -157 -58.5 -231.5t-157.5 -74.5q-94 0 -154.5 69.5
t-60.5 218.5q0 164 56.5 234.5t160.5 70.5zM94 1264q0 -186 86 -282t228 -96q136 0 227 96.5t91 269.5q0 176 -90 273.5t-234 97.5q-145 0 -226.5 -102t-81.5 -257zM950 478q0 -190 84 -284.5t228 -94.5q137 0 229.5 96.5t92.5 268.5t-92.5 272.5t-231.5 100.5
q-147 0 -228.5 -103t-81.5 -256z" />
    <glyph glyph-name="ampersand" unicode="&#x26;" horiz-adv-x="1410" 
d="M919 1334q0 -74 -62.5 -147.5t-220.5 -160.5q-207 221 -207 312q0 90 79 153.5t171 63.5q96 0 168 -67t72 -154zM575 919l433 -474q-85 -107 -196 -162t-215 -55q-79 0 -150 32.5t-117 82.5t-72.5 107.5t-27.5 109.5q-1 47 15.5 88t35 68t71.5 65.5t82 56t110 63.5
q21 12 31 18zM1047 337l16 36q18 -18 78.5 -81t97.5 -98t68 -54l86 90q-34 25 -68.5 58t-54 54.5t-60 68t-57.5 65.5q88 131 136 302l-113 31q-49 -149 -107 -253q-11 13 -184 198.5t-198 220.5q347 183 347 363q0 119 -98.5 206t-250.5 87q-154 0 -264.5 -91t-110.5 -218
q0 -52 17.5 -94t41.5 -69t67 -76t75 -96q-406 -183 -406 -433q0 -174 140 -295t352 -121q244 0 450 199z" />
    <glyph glyph-name="quotesingle" unicode="'" horiz-adv-x="331" 
d="M146 1239h51l39 210v182h-127v-180z" />
    <glyph glyph-name="parenleft" unicode="(" horiz-adv-x="737" 
d="M570 -374h72q-338 515 -338 998q0 191 57 414q33 138 119 314q52 116 160 275h-70q-97 -124 -184.5 -265.5t-128.5 -249.5q-89 -233 -89 -488q0 -262 121 -540q97 -221 281 -458z" />
    <glyph glyph-name="parenright" unicode=")" horiz-adv-x="737" 
d="M185 -371h74q146 175 285 457q115 227 115 542q0 272 -86 488q-81 207 -314 515h-70q128 -187 168 -279q85 -205 113 -310q24 -85 39.5 -201.5t15.5 -212.5q0 -495 -340 -999z" />
    <glyph glyph-name="asterisk" unicode="*" horiz-adv-x="1117" 
d="M587 1114l-12 4l30 273v13q0 59 -45 59q-47 0 -47 -59q0 -9 2 -13l27 -273l-11 -4l-174 210q-3 3 -8 9.5t-8 9.5l-7 7t-8 6t-8 2h-12q-16 0 -33 -12q-12 -15 -12 -29q0 -23 34 -53l210 -174l-4 -13l-273 29h-13q-57 0 -57 -45q0 -47 57 -47q11 0 13 2l273 28l4 -12
l-210 -174q-34 -30 -34 -52q0 -18 12 -30q14 -11 29 -11q27 0 55 33l174 210l11 -4l-27 -273q-2 -4 -2 -13q0 -59 47 -59q45 0 45 57v15l-30 273l12 4l176 -210q22 -33 52 -33q16 0 30 11q11 11 11 33v10q0 3 -0.5 6t-3 6t-4 5.5t-5 5.5t-6 5t-7.5 5.5t-7 5.5l-211 174l4 12
l273 -28q6 -2 14 -2q59 0 59 47q0 45 -61 45h-12l-273 -29l-4 13l211 174q2 2 7 5.5t7.5 5.5t6 5t5 5.5t4 5.5t3 6t0.5 6v10q0 18 -11 33q-17 12 -34 12h-9q-18 0 -39 -34z" />
    <glyph glyph-name="plus" unicode="+" horiz-adv-x="1014" 
d="M486 263h95v338h369v95h-369v336h-95v-336h-369v-95h369v-338z" />
    <glyph glyph-name="comma" unicode="," horiz-adv-x="501" 
d="M142 -162l34 -33q86 78 134.5 178t48.5 194q0 145 -107 145q-37 0 -65.5 -25.5t-28.5 -72.5q0 -35 25.5 -56.5t62.5 -21.5h10q13 0 15 2q1 -5 2.5 -14.5t2.5 -17.5t1 -15q0 -113 -135 -263z" />
    <glyph glyph-name="hyphen" unicode="-" horiz-adv-x="737" 
d="M45 527h684v134h-684v-134z" />
    <glyph glyph-name="period" unicode="." horiz-adv-x="530" 
d="M172 246q0 -39 28 -67.5t65 -28.5q38 0 66 28t28 68q0 39 -27 65t-67 26q-38 0 -65.5 -26.5t-27.5 -64.5z" />
    <glyph glyph-name="slash" unicode="/" horiz-adv-x="585" 
d="M29 138h90l462 1493h-84z" />
    <glyph glyph-name="zero" unicode="0" horiz-adv-x="983" 
d="M492 263q-161 3 -254 174q-82 151 -82 427q0 284 74 433q94 168 262 168q180 0 265 -168q70 -150 70 -433q0 -277 -84 -429q-91 -172 -251 -172zM492 154q241 0 337 166q105 171 105 544q0 372 -105 540q-96 168 -337 168q-223 0 -333 -173.5t-110 -534.5
q0 -362 110 -536t333 -174z" />
    <glyph glyph-name="one" unicode="1" horiz-adv-x="655" 
d="M367 154h103v1418h-103q-3 -94 -43 -144v2q-43 -46 -182 -49v-111h225v-1116z" />
    <glyph glyph-name="two" unicode="2" horiz-adv-x="983" 
d="M49 154h885v109h-751l632 632q119 116 119 264q0 92 -27 171.5t-80 128.5q-52 52 -147.5 82.5t-187.5 30.5q-239 0 -338 -148q-98 -140 -101 -248h103q14 109 84 185q95 104 252 104q164 0 253 -106q62 -71 62 -179q0 -114 -87 -201l-671 -702v-123z" />
    <glyph glyph-name="three" unicode="3" horiz-adv-x="1000" 
d="M534 919v-110q137 -9 221 -72q92 -73 92 -201q0 -78 -28.5 -135t-79.5 -83q-98 -55 -230 -55q-152 0 -244 88q-80 83 -93 220h-104q3 -195 125 -302q134 -115 316 -115q200 0 326 92q115 84 115 290q0 116 -69 205t-163 119q94 38 163 130t69 202q0 181 -121 281
q-119 99 -320 99q-236 0 -339 -148q-91 -133 -100 -248h102q14 109 84 185q95 104 253 104q155 0 248 -76q90 -77 90 -197q0 -139 -96 -209q-78 -54 -217 -64z" />
    <glyph glyph-name="four" unicode="4" horiz-adv-x="983" 
d="M166 757l415 663v-663h-415zM581 154h104v490h249v113h-249v815h-115l-521 -798v-130h532v-490z" />
    <glyph glyph-name="five" unicode="5" horiz-adv-x="983" 
d="M49 1553v-685l109 -51q32 66 127 109q100 45 207 45q154 0 245 -103q90 -93 90 -252q0 -165 -86 -257q-89 -96 -249 -96q-126 0 -207.5 45.5t-128.5 138.5l-99 -43q40 -101 140 -174q102 -76 295 -76q204 0 321 129q121 137 121 333q0 207 -127 334q-130 133 -315 133
q-198 0 -336 -147v507h731v110h-838z" />
    <glyph glyph-name="six" unicode="6" horiz-adv-x="983" 
d="M492 263q-68 0 -131 40.5t-109 115.5q-92 145 -92 406q87 95 158 119q71 27 174 27q158 0 245 -91q90 -96 90 -264q0 -174 -94 -265q-91 -88 -241 -88zM492 154q190 0 317 133q125 131 125 329q0 201 -125 332q-132 135 -317 135q-178 0 -334 -125q12 265 98 386
q89 121 236 121q211 0 349 -135l68 57q-68 82 -154 129q-103 56 -263 56q-213 0 -326 -177q-117 -186 -117 -531q0 -326 111 -525q101 -185 332 -185z" />
    <glyph glyph-name="seven" unicode="7" horiz-adv-x="983" 
d="M70 154h129l714 1250v127h-884v-107h763z" />
    <glyph glyph-name="eight" unicode="8" horiz-adv-x="983" 
d="M492 919q-146 0 -223 80q-68 80 -68 193q0 115 78 193q77 80 213 80q140 0 218 -84q72 -80 72 -189q0 -123 -82 -199q-77 -74 -208 -74zM492 263q-151 0 -242 65q-94 63 -94 208q0 148 78.5 210.5t257.5 62.5q167 0 251 -66q84 -64 84 -207q0 -132 -88.5 -202.5
t-246.5 -70.5zM492 154q190 0 319 113q123 111 123 269q0 227 -220 342q175 128 175 314q0 184 -117 281q-120 99 -277 99q-177 0 -290 -95q-111 -96 -111 -285q0 -171 173 -314q-218 -112 -218 -342q0 -157 121 -269q125 -113 322 -113z" />
    <glyph glyph-name="nine" unicode="9" horiz-adv-x="983" 
d="M492 1465q138 0 232 -106q83 -97 83 -282q0 -165 -113 -250q-92 -70 -202 -70q-161 0 -246 91q-90 87 -90 262q0 174 94 261q94 94 242 94zM492 1572q-193 0 -318 -131t-125 -331q0 -206 125 -334q132 -132 318 -132q164 0 353 224q-35 -371 -117 -484
q-91 -121 -236 -121q-219 0 -348 135l-66 -63q72 -78 150 -126q93 -55 264 -55q216 0 329 181.5t113 528.5q0 175 -24 299.5t-85 219.5q-64 96 -142.5 142.5t-190.5 46.5z" />
    <glyph glyph-name="colon" unicode=":" horiz-adv-x="530" 
d="M172 835q0 -39 28 -67.5t65 -28.5q38 0 66 28t28 68q0 39 -27 65t-67 26q-38 0 -65.5 -27.5t-27.5 -63.5zM172 248q0 -39 28 -67.5t65 -28.5q38 0 66 27t28 69q0 39 -27 65t-67 26q-38 0 -65.5 -27.5t-27.5 -63.5z" />
    <glyph glyph-name="semicolon" unicode=";" horiz-adv-x="501" 
d="M158 831q0 -40 28 -68t66 -28t64.5 28t26.5 68t-25.5 66t-65.5 26q-38 0 -66 -28t-28 -64zM142 -164l34 -31q86 77 134.5 175.5t48.5 196.5q0 143 -107 143q-36 0 -65 -25t-29 -71q0 -35 25.5 -56.5t62.5 -21.5h10q13 0 15 2q6 -48 6 -49q0 -110 -135 -263z" />
    <glyph glyph-name="less" unicode="&#x3c;" horiz-adv-x="1014" 
d="M113 570l837 -324v97l-747 283l747 281v97l-837 -321v-113z" />
    <glyph glyph-name="equal" unicode="=" horiz-adv-x="1014" 
d="M950 726v95h-833v-95h833zM950 349v96h-833v-96h833z" />
    <glyph glyph-name="greater" unicode="&#x3e;" horiz-adv-x="1014" 
d="M950 570v117l-837 317v-99l747 -279l-747 -283v-101z" />
    <glyph glyph-name="question" unicode="?" horiz-adv-x="827" 
d="M425 353q-46 0 -74.5 -29.5t-28.5 -73.5q0 -42 28.5 -69t74.5 -27q44 0 69 27.5t25 68.5q0 44 -25 73.5t-69 29.5zM468 492v159q0 11 1.5 21t3 17.5t8 17.5t10 15.5t15.5 19t17.5 19.5t24 25t27.5 29q59 61 93.5 100.5t67 88t46.5 96.5t14 103q0 101 -42.5 191.5
t-125 149.5t-185.5 59q-142 0 -247.5 -95t-105.5 -228q0 -107 65.5 -191.5t170.5 -84.5q84 0 129.5 46.5t45.5 125.5q0 57 -31 131h-53q12 -47 12 -90q0 -55 -25 -81t-78 -26q-63 0 -98 52.5t-35 117.5q0 90 78 163.5t172 73.5q79 0 138.5 -51.5t86 -121t26.5 -141.5
q0 -76 -41.5 -145.5t-125.5 -150.5q-80 -78 -118 -135.5t-38 -120.5v-159h97z" />
    <glyph glyph-name="at" unicode="@" horiz-adv-x="1628" 
d="M523 581q0 139 52 279q52 138 123 199q70 61 143 61q91 0 154 -88q62 -80 62 -232q0 -138 -49 -277v2q-56 -136 -136 -201q-78 -65 -143 -65q-81 0 -144 88q-62 91 -62 234zM938 312l39 -10q5 -81 37.5 -116.5t105.5 -35.5q168 0 312 187q175 230 175 535q0 211 -95 406
q-95 181 -251.5 276.5t-353.5 95.5q-232 0 -412 -117q-181 -114 -290 -363q-119 -247 -119 -556q0 -285 109 -489q107 -203 290.5 -310.5t440.5 -107.5q156 0 313 55q136 59 249 166q100 100 150 203h-111q-82 -140 -236 -225q-153 -83 -365 -83q-354 0 -556 211t-202 594
q0 252 99 486q104 211 266.5 320t365.5 109q175 0 314 -88q140 -85 228 -238q82 -156 82 -339q0 -167 -60 -305h2q-44 -123 -146 -214q-85 -82 -143 -82q-33 0 -56.5 26t-23.5 66q0 31 27 163l116 666h-112q-4 -54 -35 -207q-54 114 -125.5 177t-137.5 63q-70 0 -181 -72
q-89 -73 -168 -233q-70 -173 -70 -331q0 -197 97 -339q77 -104 191 -104q57 0 121 41t119 119z" />
    <glyph glyph-name="A" unicode="A" horiz-adv-x="1412" 
d="M429 634l277 739l285 -739h-562zM129 146h115l142 377h642l142 -377h111l-511 1356h-126z" />
    <glyph glyph-name="B" unicode="B" horiz-adv-x="983" 
d="M486 1502h-357v-1356h357q190 0 278 103.5t88 325.5q0 104 -56.5 187.5t-136.5 123.5q83 45 138 110t55 141q0 161 -87 265q-87 100 -279 100zM246 261v570h240q113 0 181 -68q68 -62 68 -219q0 -159 -68 -224q-65 -59 -172 -59h-249zM246 946v445h240q109 0 181 -65
q68 -65 68 -162q0 -100 -68 -156q-74 -62 -181 -62h-240z" />
    <glyph glyph-name="C" unicode="C" horiz-adv-x="1219" 
d="M651 146q197 0 289 67q84 61 146 185l-91 39q-57 -106 -131 -139q-78 -37 -213 -37q-190 0 -298 174q-107 170 -107 388q0 221 107 392q111 176 298 176q227 0 340 -195l97 50q-52 104 -158 178q-115 78 -294 78q-224 0 -365 -197q-142 -198 -142 -482q0 -305 142 -491
q69 -88 167 -137t213 -49z" />
    <glyph glyph-name="D" unicode="D" horiz-adv-x="1166" 
d="M246 261v1130h238q214 0 326.5 -142t112.5 -426q0 -307 -131 -435q-133 -127 -308 -127h-238zM129 146h355q223 0 386 160q168 162 168 517q0 372 -160 523q-162 156 -394 156h-355v-1356z" />
    <glyph glyph-name="E" unicode="E" horiz-adv-x="1059" 
d="M129 146h801v115h-684v507h466v114h-466v509h684v111h-801v-1356z" />
    <glyph glyph-name="F" unicode="F" horiz-adv-x="1004" 
d="M129 146h117v622h466v114h-466v509h684v111h-801v-1356z" />
    <glyph glyph-name="G" unicode="G" horiz-adv-x="1219" 
d="M728 146q93 0 191.5 44t168.5 118v470h-407v-111h300v-306q-112 -100 -252 -100q-267 0 -376 174q-107 175 -107 388q0 221 107 392q111 176 298 176q227 0 340 -195l97 50q-52 104 -158 178q-115 78 -294 78q-224 0 -365 -197q-142 -198 -142 -482q0 -305 142 -491
q68 -89 185.5 -137.5t271.5 -48.5z" />
    <glyph glyph-name="H" unicode="H" horiz-adv-x="1117" 
d="M129 146h115v622h628v-622h117v1356h-117v-620h-628v620h-115v-1356z" />
    <glyph glyph-name="I" unicode="I" horiz-adv-x="372" 
d="M129 146h115v1356h-115v-1356z" />
    <glyph glyph-name="J" unicode="J" horiz-adv-x="996" 
d="M501 146q165 0 269 92q98 87 98 273v991h-111v-991q0 -122 -61 -186t-195 -64q-127 0 -188.5 56t-66.5 173h-117q4 -79 31 -144.5t68 -101.5q51 -45 123.5 -71.5t149.5 -26.5z" />
    <glyph glyph-name="K" unicode="K" horiz-adv-x="1133" 
d="M129 146h117v463l148 195l470 -658h140l-534 751l470 605h-136l-558 -706v706h-117v-1356z" />
    <glyph glyph-name="L" unicode="L" horiz-adv-x="1059" 
d="M129 146h801v115h-684v1241h-117v-1356z" />
    <glyph glyph-name="M" unicode="M" horiz-adv-x="1462" 
d="M129 146h117v1159l483 -796h2l488 796v-1159h113v1356h-123l-478 -778l-475 778h-127v-1356z" />
    <glyph glyph-name="N" unicode="N" horiz-adv-x="1213" 
d="M960 146h124v1356h-113v-1153l-715 1153h-127v-1356h117v1157z" />
    <glyph glyph-name="O" unicode="O" horiz-adv-x="1308" 
d="M651 261q-71 0 -143.5 39t-133.5 108q-126 147 -126 415q0 274 113 416q124 152 290 152q190 0 305 -164q109 -170 109 -404q0 -266 -109 -415q-105 -147 -305 -147zM651 146q220 0 375 186q154 198 154 491q0 315 -154 503q-149 176 -375 176q-108 0 -212.5 -52.5
t-167.5 -138.5q-66 -89 -104 -220.5t-38 -267.5q0 -299 162 -491q152 -186 360 -186z" />
    <glyph glyph-name="P" unicode="P" horiz-adv-x="983" 
d="M486 1502h-357v-1356h117v622h240q186 0 276 91.5t90 277.5q0 161 -87 265q-87 100 -279 100zM246 882v509h240q109 0 181 -65q68 -65 68 -189q0 -128 -68 -193q-65 -62 -172 -62h-249z" />
    <glyph glyph-name="Q" unicode="Q" horiz-adv-x="1320" 
d="M759 495l132 -128q-43 -53 -106.5 -79.5t-133.5 -26.5q-145 0 -277 147q-128 140 -128 415q0 270 115 416q55 72 131.5 112t158.5 40q94 0 172.5 -43.5t132.5 -120.5q109 -167 109 -404q0 -235 -90 -355l-125 125zM651 146q185 0 324 133l121 -125l96 100l-121 117
q109 165 109 452q0 309 -154 503q-149 176 -375 176q-108 0 -212.5 -52.5t-167.5 -138.5q-66 -89 -104 -220.5t-38 -267.5q0 -299 162 -491q152 -186 360 -186z" />
    <glyph glyph-name="R" unicode="R" horiz-adv-x="1061" 
d="M486 1502h-357v-1356h117v622h259q63 0 110.5 -91t90.5 -252q67 -244 107 -279h119q-82 116 -134 336q-28 118 -70 206t-92 116q122 70 169 141t47 192q0 172 -85 265q-88 100 -281 100zM246 882v509h240q112 0 183 -65q66 -66 66 -189q0 -125 -68 -193q-65 -62 -172 -62
h-249z" />
    <glyph glyph-name="S" unicode="S" horiz-adv-x="994" 
d="M499 146q180 0 274.5 95.5t94.5 269.5q0 128 -94 230q-85 91 -302 187q-99 45 -162.5 112t-63.5 138q0 102 78 154q88 59 175 59q139 0 234 -108l88 71q-113 148 -322 148q-155 0 -265 -90q-105 -88 -105 -251q0 -106 74 -186q62 -62 209 -127q196 -89 265 -158
q34 -31 55 -82t21 -105q0 -62 -19.5 -112t-52.5 -77q-70 -53 -182 -53q-101 0 -162 43q-62 42 -115 133l-89 -78q52 -83 123 -148q76 -65 243 -65z" />
    <glyph glyph-name="T" unicode="T" horiz-adv-x="1310" 
d="M129 1391h470v-1245h115v1245h468v111h-1053v-111z" />
    <glyph glyph-name="U" unicode="U" horiz-adv-x="1150" 
d="M129 1502v-911q0 -199 127 -320q125 -125 321 -125q187 0 312 125q131 128 131 320v911h-115v-911q0 -155 -92 -244q-89 -86 -236 -86q-160 0 -242 86q-89 94 -89 244v911h-117z" />
    <glyph glyph-name="V" unicode="V" horiz-adv-x="1445" 
d="M661 146h121l535 1356h-117l-478 -1233l-478 1233h-115z" />
    <glyph glyph-name="W" unicode="W" horiz-adv-x="2022" 
d="M624 146h121l267 767l266 -767h122l494 1356h-111l-441 -1233l-267 769h-125l-263 -771l-445 1235h-113z" />
    <glyph glyph-name="X" unicode="X" horiz-adv-x="1123" 
d="M131 146h113l318 605l324 -605h109l-379 677l379 679h-111l-322 -576l-318 576h-115l378 -679z" />
    <glyph glyph-name="Y" unicode="Y" horiz-adv-x="1121" 
d="M505 146h111v683l379 673h-113l-320 -576l-320 576h-113l376 -673v-683z" />
    <glyph glyph-name="Z" unicode="Z" horiz-adv-x="1150" 
d="M129 146h891v98h-764l764 1149v109h-891v-94h768l-768 -1152v-110z" />
    <glyph glyph-name="bracketleft" unicode="[" horiz-adv-x="446" 
d="M131 -265h296v111h-183v1666h183v113h-296v-1890z" />
    <glyph glyph-name="backslash" unicode="\" horiz-adv-x="446" 
d="M371 109h82l-355 1520h-78z" />
    <glyph glyph-name="bracketright" unicode="]" horiz-adv-x="446" 
d="M345 -265v1890h-296v-113h187v-1666h-187v-111h296z" />
    <glyph glyph-name="asciicircum" unicode="^" horiz-adv-x="754" 
d="M172 848l224 660l222 -660h110l-285 781h-96l-279 -781h104z" />
    <glyph glyph-name="underscore" unicode="_" horiz-adv-x="893" 
d="M-4 -49v-60h942v60h-942z" />
    <glyph glyph-name="grave" unicode="`" horiz-adv-x="534" 
d="M357 1385l-101 246h-145l160 -246h86z" />
    <glyph glyph-name="a" unicode="a" horiz-adv-x="832" 
d="M630 597v-199q0 -87 -74 -115q-54 -22 -141 -22q-111 0 -162.5 32t-51.5 105q0 67 56 105q49 31 162 31q136 0 211 63zM90 858l121 -39q22 57 80 82q43 22 124 22q117 0 164 -41q51 -55 51 -102q0 -58 -51 -95q-47 -37 -164 -37q-212 0 -269 -75q-60 -75 -60 -175
q0 -51 22 -99t64 -81q39 -34 104.5 -53t138.5 -19q131 0 215 37v-37h113v589q0 115 -68 213q-66 90 -260 90q-111 0 -204 -51q-63 -37 -121 -129z" />
    <glyph glyph-name="b" unicode="b" horiz-adv-x="945" 
d="M490 923q103 0 183 -76q70 -73 70 -256q0 -172 -70 -254q-65 -76 -183 -76q-124 0 -186 76q-66 75 -66 254q0 184 66 256q73 76 186 76zM121 146h117v113q101 -113 252 -113q163 0 265 111q101 114 101 334q0 228 -101 335q-51 52 -120 82t-145 30q-149 0 -252 -115v579
h-117v-1356z" />
    <glyph glyph-name="c" unicode="c" horiz-adv-x="860" 
d="M665 833l111 19q-121 186 -322 186q-155 0 -267 -112q-101 -104 -101 -335q0 -225 103 -334q108 -111 265 -111q198 0 322 182l-111 37q-75 -104 -211 -104q-125 0 -187 76q-66 83 -66 254q0 181 66 256q67 76 187 76q134 0 211 -90z" />
    <glyph glyph-name="d" unicode="d" horiz-adv-x="945" 
d="M710 146h113v1356h-113v-581q-102 117 -254 117q-153 0 -265 -112q-105 -111 -105 -335q0 -230 105 -335q110 -110 265 -110q153 0 254 113v-113zM456 923q116 0 186 -76q68 -74 68 -256q0 -177 -68 -254q-59 -76 -186 -76q-130 0 -187 76q-66 83 -66 254q0 82 18 151
t48 105q64 76 187 76z" />
    <glyph glyph-name="e" unicode="e" horiz-adv-x="912" 
d="M704 692h-497q8 108 70 170q64 61 179 61q111 0 178 -61q61 -49 70 -170zM772 320l-107 43q-75 -102 -209 -102q-120 0 -186 79t-67 239h620q0 245 -99 347q-115 112 -268 112q-155 0 -267 -112q-103 -106 -103 -335q0 -230 105 -335q110 -110 265 -110q195 0 316 174z
" />
    <glyph glyph-name="f" unicode="f" horiz-adv-x="680" 
d="M248 146h109v777h154v115h-154v175q0 96 31.5 137t99.5 41q51 0 103 -18v107q-42 22 -103 22q-122 0 -180 -66q-60 -63 -60 -223v-175h-162v-115h162v-777z" />
    <glyph glyph-name="g" unicode="g" horiz-adv-x="945" 
d="M295 -189v-104q528 -23 528 328v1003h-113v-117q-102 117 -254 117q-153 0 -265 -112q-105 -111 -105 -335q0 -230 105 -335q110 -110 265 -110q153 0 254 113v-230q0 -53 -21.5 -92.5t-57.5 -63.5t-91 -38t-112.5 -19t-132.5 -5zM456 923q116 0 186 -76q68 -74 68 -256
q0 -177 -68 -254q-59 -76 -186 -76q-130 0 -187 76q-66 83 -66 254q0 82 18 151t48 105q64 76 187 76z" />
    <glyph glyph-name="h" unicode="h" horiz-adv-x="945" 
d="M121 146h117v445q0 184 66 256q73 76 186 76q103 0 183 -76q70 -73 70 -256v-445h113v445q0 228 -101 335q-51 52 -120 82t-145 30q-149 0 -252 -115v579h-117v-1356z" />
    <glyph glyph-name="i" unicode="i" horiz-adv-x="460" 
d="M230 1348q-26 0 -40 -16.5t-14 -40.5q0 -56 54 -56q55 0 55 56q0 23 -15 40t-40 17zM176 146h109v892h-109v-892z" />
    <glyph glyph-name="j" unicode="j" horiz-adv-x="460" 
d="M230 1348q-26 0 -40 -16.5t-14 -40.5q0 -56 54 -56q55 0 55 56q0 23 -15 40t-40 17zM176 -320h109v1358h-109v-1358z" />
    <glyph glyph-name="k" unicode="k" horiz-adv-x="945" 
d="M121 146h117v381l187 177l304 -558h129l-357 626l254 266h-156l-361 -379v843h-117v-1356z" />
    <glyph glyph-name="l" unicode="l" horiz-adv-x="460" 
d="M176 146h109v1356h-109v-1356z" />
    <glyph glyph-name="m" unicode="m" horiz-adv-x="1546" 
d="M99 146h114v445q0 180 70 256t185 76q119 0 185 -76q71 -77 71 -256v-445h113v445q0 185 68 256q79 76 183 76q116 0 192 -76q64 -73 64 -256v-445h111v445q0 228 -101 335q-109 112 -266 112q-188 0 -310 -174q-122 174 -310 174q-149 0 -255 -115v115h-114v-892z" />
    <glyph glyph-name="n" unicode="n" horiz-adv-x="926" 
d="M99 146h116v445q0 83 18.5 151.5t49.5 104.5q64 76 185 76q54 0 103.5 -21t81.5 -55q34 -37 52.5 -104.5t18.5 -151.5v-445h115v445q0 223 -106 335q-109 112 -265 112q-150 0 -253 -115v115h-116v-892z" />
    <glyph glyph-name="o" unicode="o" horiz-adv-x="912" 
d="M456 923q116 0 186 -76q68 -74 68 -256q0 -177 -68 -254q-59 -76 -186 -76q-130 0 -187 76q-66 83 -66 254q0 82 18 151t48 105q64 76 187 76zM86 591q0 -230 105 -335q110 -110 265 -110q160 0 268 111q99 105 99 334q0 236 -99 335q-112 112 -268 112q-153 0 -265 -112
q-105 -111 -105 -335z" />
    <glyph glyph-name="p" unicode="p" horiz-adv-x="945" 
d="M490 923q103 0 183 -76q70 -73 70 -256q0 -172 -70 -254q-65 -76 -183 -76q-124 0 -186 76q-66 75 -66 254q0 184 66 256q73 76 186 76zM121 -320h117v579q101 -113 252 -113q163 0 265 111q101 114 101 334q0 228 -101 335q-51 52 -120 82t-145 30q-149 0 -252 -115v115
h-117v-1358z" />
    <glyph glyph-name="q" unicode="q" horiz-adv-x="945" 
d="M710 -320h113v1358h-113v-117q-102 117 -254 117q-153 0 -265 -112q-105 -111 -105 -335q0 -230 105 -335q110 -110 265 -110q153 0 254 113v-579zM456 923q116 0 186 -76q68 -74 68 -256q0 -177 -68 -254q-59 -76 -186 -76q-130 0 -187 76q-66 83 -66 254q0 82 18 151
t48 105q64 76 187 76z" />
    <glyph glyph-name="r" unicode="r" horiz-adv-x="815" 
d="M99 146h114v445q0 182 68 256q70 76 185 76q117 0 199 -76l64 85q-94 106 -263 106q-152 0 -253 -115v115h-114v-892z" />
    <glyph glyph-name="s" unicode="s" horiz-adv-x="754" 
d="M562 852l97 57q-84 129 -283 129q-161 0 -228 -73q-62 -68 -62 -183q0 -54 67 -117t175 -109q99 -42 162.5 -84.5t63.5 -75.5q0 -75 -42.5 -105t-135.5 -30q-143 0 -177 88l-103 -31q78 -172 280 -172q76 0 135.5 19t89.5 52q64 70 64 179q0 57 -66 118.5t-172 109.5
q-224 106 -224 158q0 64 35 102q36 39 138 39q133 0 186 -71z" />
    <glyph glyph-name="t" unicode="t" horiz-adv-x="680" 
d="M357 1348h-109v-310h-162v-115h162v-486q0 -166 60 -226q62 -65 180 -65q67 0 103 24v103q-43 -12 -103 -12q-66 0 -100 37q-31 37 -31 139v486h234v115h-234v310z" />
    <glyph glyph-name="u" unicode="u" horiz-adv-x="926" 
d="M825 1038h-113v-447q0 -175 -70 -254q-65 -76 -186 -76q-128 0 -185 76q-30 38 -49 105.5t-19 148.5v447h-117v-447q0 -231 107 -335q116 -110 263 -110q155 0 256 113v-113h113v892z" />
    <glyph glyph-name="v" unicode="v" horiz-adv-x="1039" 
d="M86 1038l372 -892h121l375 892h-119l-314 -779l-316 779h-119z" />
    <glyph glyph-name="w" unicode="w" horiz-adv-x="1585" 
d="M86 1038l314 -892h127l265 767l261 -767h129l312 892h-107l-267 -777l-270 777h-122l-266 -775l-265 775h-111z" />
    <glyph glyph-name="x" unicode="x" horiz-adv-x="867" 
d="M86 1038l290 -447l-292 -445h105l246 365l242 -365h105l-298 445l298 447h-107l-240 -363l-246 363h-103z" />
    <glyph glyph-name="y" unicode="y" horiz-adv-x="1049" 
d="M96 1038l382 -911l-84 -168q-92 -185 -174 -185h-134v-94h134q76 0 152 76t139 223l456 1059h-111l-324 -779l-323 779h-113z" />
    <glyph glyph-name="z" unicode="z" horiz-adv-x="914" 
d="M86 915h614l-614 -652v-117h739v108h-612l612 647v119h-739v-105z" />
    <glyph glyph-name="braceleft" unicode="{" horiz-adv-x="536" 
d="M60 716v-131q51 -9 92 -41q45 -36 63 -115q21 -99 21 -265q0 -194 14 -283q11 -79 43 -127q17 -27 66 -52q46 -26 121 -26h27v121h-6q-83 0 -113 29q-37 37 -47 88q-9 38 -9 271q0 224 -41 312q-41 90 -154 147q104 66 132 115q39 66 55 152q8 47 8 355q0 137 39 183
q46 53 130 53h6v117h-27q-76 0 -119.5 -18t-71.5 -62q-35 -56 -45 -156q-8 -90 -8 -248q0 -178 -19 -267q-15 -64 -58 -105.5t-99 -46.5z" />
    <glyph glyph-name="bar" unicode="|" horiz-adv-x="142" 
d="M29 -406h86v2035h-86v-2035z" />
    <glyph glyph-name="braceright" unicode="}" horiz-adv-x="536" 
d="M499 585v131q-58 6 -91 39q-42 34 -67 113q-17 67 -17 267q0 191 -14 277q-5 64 -47 131q-22 36 -60 56q-34 20 -125 20h-29v-117h6q68 0 113 -31q35 -28 47 -86q7 -31 7 -273q0 -205 39 -305q34 -81 162 -159q-81 -38 -126.5 -99.5t-60.5 -160.5q-14 -69 -14 -355
q0 -151 -33 -187q-42 -49 -134 -49h-6v-121h29q144 0 187 82q37 63 47 158q12 90 12 248q0 196 17 263q40 146 158 158z" />
    <glyph glyph-name="asciitilde" unicode="~" horiz-adv-x="938" 
d="M80 911v-148q59 59 88 74q68 33 109 33q68 0 191 -63q117 -62 133 -66q39 -10 89 -10q117 0 215 104v152q-44 -39 -90 -68q-52 -33 -105 -33q-62 0 -156 50q-73 37 -162 68q-50 18 -99 18q-127 0 -213 -111z" />
    <glyph glyph-name="currency" unicode="&#xa4;" horiz-adv-x="969" 
d="M230 741q0 99 80 169.5t191 70.5t191 -70.5t80 -169.5q0 -98 -80.5 -170t-190.5 -72q-111 0 -191 72t-80 170zM86 1053l127 -109q-71 -100 -71 -203q0 -88 69 -205l-125 -111l68 -60l123 113q134 -72 224 -72q109 0 227 72l122 -113l69 60l-123 111q68 98 68 205
q0 103 -64 203l119 109l-69 67l-122 -116q-116 71 -227 71q-105 0 -224 -71l-123 116z" />
    <glyph glyph-name="brokenbar" unicode="&#xa6;" horiz-adv-x="450" 
d="M277 1619h-76v-847h76v847zM277 453h-76v-841h76v841z" />
    <glyph glyph-name="section" unicode="&#xa7;" horiz-adv-x="1109" 
d="M765 425l-30 2q-12 7 -100.5 61t-142.5 85q-177 105 -234 160t-57 127q0 60 45 108.5t156 110.5q79 -60 230 -143q193 -110 246 -169q68 -78 68 -135q0 -51 -46.5 -105.5t-134.5 -101.5zM291 144l-123 -15q36 -143 143.5 -220t283.5 -77t281 81.5t105 207.5q0 66 -47 132
t-148 139q162 68 199 105q70 67 70 168q0 118 -134 232q-51 43 -223 133q-122 65 -215.5 126t-121.5 94q-47 53 -47 109q0 73 74.5 126.5t184.5 53.5q108 0 169.5 -46.5t86.5 -164.5l129 18q-28 138 -129.5 211.5t-274.5 73.5q-156 0 -253.5 -83.5t-97.5 -195.5
q0 -60 35.5 -119t124.5 -131q-148 -47 -206.5 -110.5t-58.5 -152.5q0 -61 37.5 -128t90.5 -110q48 -40 221 -137q297 -160 368 -244q45 -52 45 -103q0 -84 -74 -140.5t-191 -56.5q-125 0 -198.5 54.5t-105.5 169.5z" />
    <glyph glyph-name="copyright" unicode="&#xa9;" horiz-adv-x="1634" 
d="M1244 661l-70 14q-44 -91 -127 -143t-195 -52q-149 0 -242 95t-93 268t99 271.5t250 98.5q110 0 180 -37t113 -117l70 10q-53 97 -145.5 152t-221.5 55q-192 0 -309.5 -114.5t-117.5 -316.5q0 -200 117 -316.5t310 -116.5q128 0 234 64t148 185zM862 1549q190 0 380 -88
q90 -42 167 -111t126 -150q52 -80 81.5 -173t29.5 -180q0 -177 -111 -352q-101 -167 -283 -259q-184 -94 -390 -94q-219 0 -388 94q-184 94 -291 259q-107 172 -107 352q0 182 107 353q51 78 129.5 147t165.5 114q77 41 184 64.5t200 23.5zM862 1629q-224 0 -419 -102
q-205 -99 -320 -290q-117 -192 -117 -390q0 -199 117 -389q125 -197 312 -288q205 -102 427 -102q214 0 421 102q191 89 316 288q112 177 112 389q0 219 -112 390q-132 204 -318 290q-213 102 -419 102z" />
    <glyph glyph-name="guillemotleft" unicode="&#xab;" horiz-adv-x="998" 
d="M640 529l238 374h-76l-287 -374l285 -375h78zM267 529l238 374h-74l-289 -374l287 -375h76z" />
    <glyph glyph-name="logicalnot" unicode="&#xac;" horiz-adv-x="1295" 
d="M1213 415v591h-1067v-120h938v-471h129z" />
    <glyph glyph-name="_175" unicode="&#xad;" horiz-adv-x="737" 
d="M45 527h684v134h-684v-134z" />
    <glyph glyph-name="registered" unicode="&#xae;" horiz-adv-x="1634" 
d="M585 866v322h217q279 0 279 -160q0 -73 -65 -117.5t-205 -44.5h-226zM507 431h78v375h135q85 0 142 -36q50 -31 108 -113t140 -226h107q-33 41 -74 102t-67.5 100t-72 82.5t-100.5 72.5l2 35q126 9 195.5 71.5t69.5 147.5q0 58 -43 111.5t-99 71.5q-71 19 -226 19h-295
v-813zM862 1556q194 0 380 -89q90 -44 166 -113.5t127 -150.5q50 -76 80.5 -172.5t30.5 -180.5q0 -176 -111 -349q-110 -176 -283 -263q-180 -92 -390 -92q-226 0 -388 92q-183 95 -291 263q-107 177 -107 349q0 185 107 353q53 81 131 152t164 112q82 39 188.5 64t195.5 25
zM862 1634q-210 0 -419 -103q-200 -93 -320 -289q-117 -190 -117 -392q0 -203 117 -386q128 -198 312 -290q201 -100 427 -100q218 0 421 100q191 95 316 290q112 177 112 386q0 221 -112 392q-131 203 -318 289q-215 103 -419 103z" />
    <glyph glyph-name="macron" unicode="&#xaf;" horiz-adv-x="1224" 
d="M-23 1543h1330v86h-1330v-86z" />
    <glyph glyph-name="degree" unicode="&#xb0;" horiz-adv-x="889" 
d="M218 1352q0 83 71.5 144.5t168.5 61.5q98 0 170 -61.5t72 -144.5q0 -93 -70.5 -153t-171.5 -60q-99 0 -169.5 60t-70.5 153zM168 1352q0 -116 87 -194.5t203 -78.5q120 0 207.5 79t87.5 194q0 105 -88.5 185t-206.5 80q-114 0 -202 -80t-88 -185z" />
    <glyph glyph-name="plusminus" unicode="&#xb1;" horiz-adv-x="1219" 
d="M1170 154v123h-1065v-123h1065zM577 431h121v435h472v119h-472v431h-121v-431h-472v-119h472v-435z" />
    <glyph glyph-name="acute" unicode="&#xb4;" horiz-adv-x="737" 
d="M298 1377h100l211 246h-180z" />
    <glyph glyph-name="paragraph" unicode="&#xb6;" horiz-adv-x="1193" 
d="M493 -324h116v1826h343v-1826h121v1826h168v125h-705q-256 0 -387 -110.5t-131 -311.5q0 -175 123 -283.5t352 -125.5v-1120z" />
    <glyph glyph-name="periodcentered" unicode="&#xb7;" horiz-adv-x="692" 
d="M277 495h166v164h-166v-164z" />
    <glyph glyph-name="ordmasculine" unicode="&#xba;" 
d="M425 1535q115 0 184.5 -70.5t69.5 -212.5q0 -147 -69.5 -220.5t-184.5 -73.5q-119 0 -188 74.5t-69 213.5q0 289 257 289zM425 1625q-158 0 -254.5 -103t-96.5 -278q0 -170 97 -270t254 -100q149 0 248 101.5t99 270.5q0 173 -95.5 276t-251.5 103z" />
    <glyph glyph-name="guillemotright" unicode="&#xbb;" horiz-adv-x="998" 
d="M402 527l-238 -375h78l285 373l-285 376h-78zM772 527l-236 -375h74l283 375l-283 374h-74z" />
    <glyph glyph-name="tilde" unicode="&#x2dc;" horiz-adv-x="737" 
d="M29 1432h82q22 99 131 99q45 0 132 -41q129 -56 180 -56q73 0 123.5 48.5t63.5 140.5h-74q-13 -56 -40 -76t-81 -20q-45 0 -132 35q-12 5 -45.5 18.5t-44.5 17.5t-32.5 11t-34.5 9.5t-25 2.5q-84 0 -133 -49q-45 -39 -70 -140z" />
    <glyph glyph-name="uni10D0" unicode="&#x10d0;" horiz-adv-x="780" 
d="M700 486q0 158 -160 284t-160 233h-117q0 -124 154 -250q156 -127 156 -267q0 -227 -177 -227q-89 0 -140 55.5t-51 157.5q0 81 41 137l-82 68q-84 -106 -84 -205q0 -142 90 -232t226 -90q121 0 213 92q91 94 91 244z" />
    <glyph glyph-name="uni10D1" unicode="&#x10d1;" 
d="M205 550q0 139 50 215t153 76q96 0 146.5 -77t50.5 -214q0 -291 -199 -291q-89 0 -145 76.5t-56 214.5zM256 1609h-121q-3 -139 167 -265q173 -126 71 -392q-293 -36 -293 -402q0 -185 89.5 -292.5t236.5 -107.5q146 0 234.5 108t88.5 292q0 182 -74 279q-71 93 -167 121
q90 300 -71 435q-158 133 -161 224z" />
    <glyph glyph-name="uni10D2" unicode="&#x10d2;" horiz-adv-x="885" 
d="M185 18q0 151 70.5 238t187.5 87q109 0 183 -99q74 -97 74 -226q0 -134 -68 -225q-68 -93 -197 -93q-96 0 -174 78q-76 79 -76 240zM825 18q0 306 -283 423q143 110 143 279q0 105 -78 175t-195 70q-109 0 -192 -62q-80 -62 -80 -172q0 -75 53 -152l84 57q-29 26 -29 99
q0 63 39 92t125 29q80 0 118 -36.5t38 -99.5q0 -156 -127 -271q-164 0 -273 -127q-108 -126 -108 -304q0 -175 114 -301q115 -127 261 -127q166 0 277 129q113 128 113 299z" />
    <glyph glyph-name="uni10D3" unicode="&#x10d3;" horiz-adv-x="1203" 
d="M999 560q0 -170 -63 -236q-62 -65 -129 -65q-189 0 -189 291t191 291q87 0 138.5 -77.5t51.5 -203.5zM493 550q0 -186 90 -294q91 -106 224 -106q134 0 225 109q91 112 91 307q0 175 -89 279q-90 105 -227 105q-151 0 -236 -117q-90 117 -197 117q-136 0 -215 -112
t-79 -309q0 -213 89 -360.5t268 -242.5v-8h-191v-121q126 36 238 39q95 -3 171 -43q75 -40 137 -189h146q-50 188 -398 367q-335 169 -335 558q0 114 39 214q38 98 129 98q92 0 158 -98q-38 -91 -38 -193z" />
    <glyph glyph-name="uni10D4" unicode="&#x10d4;" horiz-adv-x="830" 
d="M729 -76v741q0 132 -81.5 208.5t-212.5 76.5t-209 -77.5t-78 -201.5q0 -132 78 -232l84 70q-47 62 -47 164q0 75 44.5 121.5t135.5 46.5q66 0 114 -46t48 -130v-741q0 -106 -53 -165t-146 -59q-91 0 -151 56t-60 170q0 115 74 177l-64 73q-125 -101 -125 -250
q0 -158 96 -246q96 -90 230 -90q127 0 224 86q99 86 99 248z" />
    <glyph glyph-name="uni10D5" unicode="&#x10d5;" 
d="M729 -64v126q0 160 -179 268v15q179 86 179 310q0 132 -84.5 213.5t-229.5 81.5q-129 0 -211.5 -78t-82.5 -221q0 -73 56 -167l98 56q-37 58 -37 113q0 98 44.5 143t134.5 45q92 0 140 -49.5t48 -134.5q0 -133 -38.5 -203t-96.5 -70h-96v-95h96q60 0 98 -71
q37 -70 37 -146v-136q0 -124 -45 -180t-154 -56q-89 0 -145 59.5t-56 166.5q0 116 64 183l-64 67q-125 -95 -125 -250q0 -145 92 -240q90 -96 234 -96q159 0 241 88t82 258z" />
    <glyph glyph-name="uni10D6" unicode="&#x10d6;" horiz-adv-x="838" 
d="M135 1328q0 94 43 142.5t120 48.5q170 0 170 -187q0 -144 -49 -187q-48 -45 -117 -45q-57 0 -113 62q-54 60 -54 166zM232 550q0 291 199 291q89 0 145 -80.5t56 -210.5q0 -167 -61 -228q-63 -63 -140 -63q-75 0 -138 63q-61 61 -61 228zM581 1336q0 117 -78 205
q-76 90 -207 90q-118 0 -198 -90q-78 -88 -78 -211q0 -134 89 -222t189 -88h39q-144 -147 -187 -248q-43 -98 -43 -222q0 -209 100 -306q100 -94 224 -94q130 0 228 98q97 100 100 302q0 191 -104 295q-102 105 -224 105l-53 -8q106 118 153 197q50 86 50 197z" />
    <glyph glyph-name="uni10D7" unicode="&#x10d7;" horiz-adv-x="1265" 
d="M605 550q0 -148 -53 -219.5t-146 -71.5q-201 0 -201 291q0 152 51 221.5t150 69.5q199 0 199 -291zM729 550q0 77 -23 156q26 57 76 96t117 39q72 0 115 -73t43 -202q0 -261 -218 -424h138q209 156 209 422q0 170 -80 279q-79 107 -207 107q-67 0 -126.5 -42t-101.5 -122
q-36 80 -105.5 122t-159.5 42q-147 0 -236.5 -107t-89.5 -293q0 -189 88.5 -294.5t237.5 -105.5q146 0 234 113q89 113 89 287z" />
    <glyph glyph-name="uni10D8" unicode="&#x10d8;" 
d="M406 950q153 0 238 -97.5t85 -273.5q0 -215 -124 -419h-112q112 227 112 423q0 125 -50.5 191.5t-148.5 66.5q-99 0 -150 -66.5t-51 -191.5q0 -182 107 -423h-111q-121 227 -121 419q0 177 86 274t240 97z" />
    <glyph glyph-name="uni10D9" unicode="&#x10d9;" horiz-adv-x="789" 
d="M710 -74v94q0 110 -62 210q-60 99 -186 127v17q123 45 171 107.5t48 150.5q0 228 -357 318l-24 -96q254 -55 254 -230q0 -92 -48 -149.5t-132 -57.5h-87v-101h86q77 0 146 -98q66 -94 66 -202v-90q0 -113 -55 -169.5t-146 -56.5t-148 61.5t-57 164.5q0 120 73 181l-67 69
q-125 -92 -125 -250q0 -140 92 -238t232 -98q141 0 232 94q94 94 94 242z" />
    <glyph glyph-name="uni10DA" unicode="&#x10da;" horiz-adv-x="1587" 
d="M1508 612q0 328 -267 328q-80 0 -138 -45.5t-83 -127.5h-16q-34 193 -198 193q-82 0 -135.5 -51.5t-69.5 -141.5h-16q-25 83 -84.5 128t-147.5 45q-142 0 -207.5 -94.5t-65.5 -281.5q0 -195 112 -347.5t340 -286.5l-222 -22l18 -103q165 50 251 60q76 9 168 -19
q175 -54 298 -219h156q-156 227 -407 311q-245 80 -418 232q-171 150 -171 392q0 163 41 216t103 53q100 0 145.5 -70t45.5 -186v-154h108v154q0 140 42 207.5t116 67.5q77 0 114.5 -65.5t37.5 -209.5v-154h105v150q0 117 45 188.5t133 71.5q146 0 146 -219
q0 -185 -180 -415h112q189 204 189 415z" />
    <glyph glyph-name="uni10DB" unicode="&#x10db;" horiz-adv-x="830" 
d="M406 841q102 0 150.5 -71.5t48.5 -235.5q0 -142 -53 -208.5t-137 -66.5q-97 0 -154 84q-56 86 -56 207q0 137 52 214t149 77zM80 550q0 -163 90 -283q90 -117 245 -117q144 0 229 97t85 285v759q0 161 -78.5 250.5t-225.5 89.5q-140 0 -220.5 -74t-85.5 -207
q0 -104 43 -191l107 37q-43 67 -43 165q0 65 58.5 111.5t140.5 46.5q88 0 138.5 -59.5t50.5 -170.5v-448h-13q-74 109 -197 109q-156 0 -242 -123q-82 -119 -82 -277z" />
    <glyph glyph-name="uni10DC" unicode="&#x10dc;" horiz-adv-x="830" 
d="M624 550q0 -139 -52 -215t-147 -76q-103 0 -155.5 76t-52.5 215q-2 130 55.5 210.5t154.5 80.5q90 0 143.5 -76.5t53.5 -214.5zM751 550q0 165 -80 283q-79 117 -246 117q-123 0 -191 -109h-19v526q0 125 113 125h208q188 0 188 142h-112q0 -39 -76 -39h-183
q-254 0 -254 -228v-817q0 -190 87 -295t239 -105q144 0 234 111q92 117 92 289z" />
    <glyph glyph-name="uni10DD" unicode="&#x10dd;" horiz-adv-x="1250" 
d="M568 449h109v122q0 130 48 200t141 70q85 0 132 -69.5t47 -182.5q0 -243 -267 -429h133q259 165 259 425q0 177 -91 271t-215 94q-85 0 -146 -51t-90 -152h-16q-57 203 -232 203q-141 0 -220.5 -95.5t-79.5 -269.5q0 -259 234 -425h131q-240 190 -240 425q0 118 45.5 187
t131.5 69q91 0 138.5 -70t47.5 -200v-122z" />
    <glyph glyph-name="uni10DE" unicode="&#x10de;" 
d="M710 1178q0 181 -176 252q-175 73 -175 179h-107q0 -173 165 -234q168 -62 168 -189q0 -102 -56 -172t-139 -70h-76v-99h76q87 0 151 -88t64 -234q0 -124 -52 -194t-147 -70q-92 0 -146.5 67.5t-54.5 174.5q0 97 45 158l-74 59q-96 -105 -96 -217q0 -161 91.5 -256
t234.5 -95q148 0 235.5 100.5t87.5 268.5q0 141 -59 236.5t-173 128.5v21q119 49 166 113.5t47 159.5z" />
    <glyph glyph-name="uni10DF" unicode="&#x10df;" 
d="M710 -74v1034h-100q-199 -138 -548 -168v-98q105 0 176 -62q70 -61 70 -137q0 -131 -140 -134h-108v-102h108q123 0 183.5 60.5t60.5 168.5q0 181 -205 224v14q228 0 364 103h34v-903q0 -115 -57.5 -170.5t-161.5 -55.5q-90 0 -149.5 55.5t-59.5 146.5q0 82 45 143
l-74 54q-86 -86 -86 -200q0 -137 102 -223q103 -86 222 -86q129 0 226 86q98 87 98 250z" />
    <glyph glyph-name="uni10E0" unicode="&#x10e0;" horiz-adv-x="1246" 
d="M1042 581q0 -236 -250 -421h131q243 161 243 421q0 155 -76 262t-224 107q-87 0 -143 -49t-85 -152h-20q-31 105 -81 153t-131 48q-50 0 -108 -49l-11 12q143 154 261 288q140 158 265 387h-126q-75 -160 -201 -301q-134 -150 -305 -411q-101 -143 -101 -295
q0 -261 228 -419h141q-244 182 -244 419q0 120 45.5 190t131.5 70q93 -1 141 -69t48 -187v-131h110v131q0 116 51.5 186t137.5 70q84 0 128 -72t44 -188z" />
    <glyph glyph-name="uni10E1" unicode="&#x10e1;" horiz-adv-x="830" 
d="M751 509q0 151 -107 246q-106 97 -106 140q0 49 10 137l-90 8q-17 -64 -17 -151q0 -81 93 -169q94 -89 94 -211q0 -126 -54.5 -188t-148.5 -62t-152 75t-58 230v1045h-116v-1045q0 -189 87.5 -301.5t238.5 -112.5q143 0 234 106q92 107 92 253z" />
    <glyph glyph-name="uni10E2" unicode="&#x10e2;" horiz-adv-x="1018" 
d="M484 852l-31 -511h120l-31 511q134 0 219 -163q84 -161 84 -416q0 -243 -82 -408t-246 -165q-159 0 -248 165q-90 167 -90 408q0 258 84 416q85 163 221 163zM60 273q0 -293 119 -488t332 -195q223 0 334 197q113 195 113 486q0 331 -137 490q-136 162 -279 162l31 300
h-120l31 -300q-153 0 -289 -162q-135 -161 -135 -490z" />
    <glyph glyph-name="uni10E3" unicode="&#x10e3;" horiz-adv-x="926" 
d="M825 -72v774q0 112 -57 180t-154 68q-142 0 -167 -141h-10q-14 69 -47.5 105t-63.5 36h-10q-37 0 -68 -39t-71 -39q-50 0 -62 92l-95 -34q37 -163 124 -163q56 0 86 37q31 37 66 37h18q82 0 82 -143v-232h92v232q0 79 17 115.5t66 36.5h53q36 0 64 -36.5t28 -84.5v-803
q0 -116 -55.5 -171t-149.5 -55q-106 0 -160.5 63t-54.5 169q0 101 71 175l-61 69q-130 -106 -130 -250q0 -151 92.5 -243.5t244.5 -92.5q143 0 227.5 90.5t84.5 247.5z" />
    <glyph glyph-name="uni10E4" unicode="&#x10e4;" horiz-adv-x="1154" 
d="M542 571q0 -261 -171 -261q-166 0 -166 261q0 270 173 270q86 0 125 -68.5t39 -201.5zM659 575q0 66 -21 168q66 98 162 98q74 0 112 -61.5t38 -196.5q0 -65 -37 -160q-38 -93 -92 -93h-64v-90h64q104 0 104 -263v-39q0 -238 -199 -238q-219 0 -219 214q0 56 37 111
l-64 41q-80 -68 -80 -189q0 -116 88 -201q91 -86 240 -86q129 0 224 88q97 86 97 262v42q0 196 -134 297v12q160 135 160 319q0 161 -76.5 250.5t-187.5 89.5q-128 0 -208 -139q-80 139 -225 139q-140 0 -220 -111q-78 -109 -78 -266q0 -163 84 -263q86 -103 207 -103
q134 0 211 101.5t77 266.5z" />
    <glyph glyph-name="uni10E5" unicode="&#x10e5;" horiz-adv-x="830" 
d="M729 -74v1683h-115v-739h-17q-68 80 -172 80q-135 0 -205 -69t-68 -200q0 -109 98 -225l82 63q-67 61 -67 162q0 79 37 119.5t123 40.5q95 0 142 -43.5t47 -144.5v-727q0 -109 -56 -167.5t-152 -58.5q-99 0 -152 64t-53 162q0 134 70 183l-66 67q-125 -85 -125 -250
q0 -148 97 -242t229 -94q143 0 233 90.5t90 245.5z" />
    <glyph glyph-name="uni10E6" unicode="&#x10e6;" horiz-adv-x="1160" 
d="M1081 624q0 145 -74 235.5t-205 90.5q-160 0 -217 -191h-10q-66 191 -226 191q-99 0 -185 -90q-84 -88 -84 -310q0 -303 326 -534v-12l-172 -27l6 -112q165 61 271 49q164 -41 259 -277h125q-98 259 -376 414q-153 92 -233.5 226t-80.5 273q0 171 41 230q43 61 103 61
q88 0 134 -72.5t46 -208.5v-146h103v146q0 134 45 207.5t125 73.5q76 0 113 -73q39 -73 39 -148q0 -202 -135 -368h92q170 170 170 372z" />
    <glyph glyph-name="uni10E7" unicode="&#x10e7;" horiz-adv-x="830" 
d="M729 -74v1016h-115v-343q0 -111 -52.5 -174.5t-146.5 -63.5q-89 0 -139 60.5t-50 177.5q0 99 35 171q40 75 145 186h-121q-83 -60 -129.5 -151t-46.5 -204q0 -166 80 -254t226 -88q115 0 186 108h13v-441q0 -122 -52.5 -174t-155.5 -52q-79 0 -145 60t-66 166
q0 101 41 175l-76 30q-80 -89 -80 -205q0 -165 99 -250q100 -86 227 -86q146 0 234.5 87.5t88.5 248.5z" />
    <glyph glyph-name="uni10E8" unicode="&#x10e8;" horiz-adv-x="883" 
d="M257 550q0 132 53 211.5t146 79.5q97 0 154 -74t57 -217q0 -150 -58 -220.5t-153 -70.5t-147 73.5t-52 217.5zM782 550v817q0 264 -228 264q-103 0 -158 -137h-10q-46 137 -166 137q-200 0 -200 -215v-203h109v197q0 68 23.5 93.5t81.5 25.5q67 0 88 -37.5t21 -132.5
v-220h98v220q0 92 24 131t87 39q69 0 92 -32.5t23 -127.5v-528h-16q-86 109 -193 109q-157 0 -241 -103.5t-84 -296.5q0 -182 87 -291t238 -109q144 0 234 104t90 296z" />
    <glyph glyph-name="uni10E9" unicode="&#x10e9;" horiz-adv-x="830" 
d="M437 1139l78 -29q99 135 99 283q0 107 -68 172.5t-187 65.5q-260 0 -260 -357v-1104h116v403q0 122 57.5 195t152.5 73q100 0 149.5 -63.5t49.5 -174.5q0 -242 -201 -443h131q197 214 197 445q0 145 -88 243q-86 102 -238 102q-88 0 -191 -109h-19v427q0 144 28 197.5
t110 53.5q77 0 113.5 -35t36.5 -91q0 -137 -66 -254z" />
    <glyph glyph-name="uni10EA" unicode="&#x10ea;" horiz-adv-x="924" 
d="M837 601q0 115 -108 177q-105 61 -105 145h-115q0 -111 101 -178q102 -67 102 -142q0 -94 -40 -148.5t-110 -54.5h-119v-92h119q77 0 128 -73t51 -198q0 -123 -60 -228q-62 -109 -191 -109q-170 0 -238 158q-67 156 -67 423q0 355 129 632h-121q-133 -286 -133 -630
q0 -336 106 -514.5t316 -178.5q176 0 279 139t103 306q0 253 -201 320v10q174 94 174 236z" />
    <glyph glyph-name="uni10EB" unicode="&#x10eb;" horiz-adv-x="830" 
d="M612 550q0 -135 -54 -213t-152 -78q-89 0 -145 80t-56 209q0 132 51 212.5t148 80.5q98 0 153 -76.5t55 -214.5zM729 550v1059h-117v-768h-17q-68 109 -191 109q-149 0 -236.5 -105t-87.5 -295q0 -186 89.5 -293t234.5 -107q157 0 242 113q83 111 83 287z" />
    <glyph glyph-name="uni10EC" unicode="&#x10ec;" horiz-adv-x="854" 
d="M648 616q0 -184 -143 -437q-142 -251 -160 -366h-10q0 328 -40 513q-41 206 -38 318q-3 47 39 121q43 76 153 76q100 0 149.5 -50.5t49.5 -174.5zM772 622q0 148 -85 238t-240 90q-123 0 -213 -123h-10q-31 268 -33 474q-3 157 16 193q21 35 82 35q75 0 96 -34t21 -147
v-168h91v166q0 110 23.5 146.5t78.5 36.5t72 -23q19 -19 19 -133v-158h104v160q0 133 -44 194.5t-138 61.5q-114 0 -158 -123q-56 123 -161 123q-116 0 -169.5 -80.5t-53.5 -251.5q9 -267 76 -743q44 -262 80 -445q45 -227 45 -495h92q0 122 205 460q204 340 204 546z" />
    <glyph glyph-name="uni10ED" unicode="&#x10ed;" horiz-adv-x="793" 
d="M425 743v-84q-104 -88 -183 -88q-76 0 -76 131q0 139 76 139q73 0 183 -98zM685 404l48 160q-133 44 -243 132v14q130 76 243 103l-48 160q-94 -137 -184 -206h-15q64 275 64 382q0 163 -101 224q-102 61 -102 240h-107q0 -212 101 -279q103 -68 100 -189
q0 -155 -41 -295h-12q-76 82 -146 82q-169 3 -166 -228q-3 -228 166 -228q73 0 134 76h8v-35q0 -146 100 -299q101 -150 101 -292q0 -226 -201 -226q-96 0 -147.5 58t-51.5 168q0 120 67 181l-67 69q-125 -85 -125 -250q0 -147 90 -240q90 -96 234 -96q146 0 236 92.5
t90 243.5q0 153 -115 330q-113 177 -113 319v57h17q29 -21 96 -105q62 -76 90 -123z" />
    <glyph glyph-name="uni10EE" unicode="&#x10ee;" horiz-adv-x="830" 
d="M224 550q0 133 51 212t152 79q99 0 148 -76t49 -215q0 -131 -53 -211t-144 -80t-147 77t-56 214zM99 1609v-1057q0 -203 96 -302q97 -100 230 -100q143 0 232 107q94 109 94 293q0 170 -82 283q-79 117 -242 117q-125 0 -193 -109h-16v768h-119z" />
    <glyph glyph-name="uni10EF" unicode="&#x10ef;" horiz-adv-x="780" 
d="M687 784q0 185 -207 185q-129 0 -184 -134l96 -20q15 72 90 72q99 0 99 -91q0 -60 -47 -113l-119 -143l-187 182h-134l257 -258l-226 -271v-123q283 -43 283 -220q0 -150 -357 -150v-110q461 0 464 262q0 218 -291 286l205 246l164 -162h138l-238 238l127 152
q67 76 67 172z" />
    <glyph glyph-name="uni10F0" unicode="&#x10f0;" 
d="M729 462q0 145 -150 281q119 43 119 189q0 98 -134 186q99 70 99 185q0 139 -170 189q-167 50 -167 139h-113q0 -133 165 -188q168 -56 168 -142q0 -80 -22 -115.5t-60 -24.5q-70 36 -181 48v-97q296 -62 296 -195q0 -62 -22 -95.5t-58 -15.5q-86 44 -214 64v-96
q320 -83 320 -316q0 -90 -50.5 -144.5t-148.5 -54.5q-112 0 -156 69q-45 73 -45 121q0 84 23 134l-105 37q-43 -92 -43 -169q0 -106 84 -203q87 -98 240 -98q154 0 240 94q85 92 85 218z" />
    <glyph glyph-name="uni10F1" unicode="&#x10f1;" 
d="M183 1609q-103 -221 -103 -550v-507q0 -193 89.5 -297.5t267.5 -104.5q105 0 197 55q95 55 95 193q0 120 -185 170q176 47 176 158q0 110 -186 154q176 47 176 160q0 109 -176 156q166 46 166 169q0 67 -72 115q-72 51 -72 129h-107q0 -77 68 -127t68 -123
q0 -124 -156 -124h-49v-82h49q166 0 166 -113q0 -117 -154 -117h-61v-82h61q164 0 164 -117q0 -115 -154 -115h-71v-80h71q163 0 163 -129q0 -72 -48.5 -106.5t-128.5 -34.5q-141 0 -191.5 66.5t-50.5 224.5v503q0 370 109 556h-121z" />
    <glyph glyph-name="uni10F2" unicode="&#x10f2;" 
d="M205 575q0 123 60 194.5t141 71.5q87 0 143 -70.5t56 -195.5q0 -236 -197 -316q-203 79 -203 316zM80 164v-109q129 0 328 130q194 -130 321 -130v109q-179 0 -220 56q220 173 220 351q0 196 -97 287q-98 92 -226 92q-133 0 -230 -94q-96 -90 -96 -283q0 -181 220 -351
q-37 -58 -220 -58z" />
    <glyph glyph-name="uni10F3" unicode="&#x10f3;" 
d="M729 -74v131q0 137 -56 208t-199 100v9q255 120 255 556h-620v-320h106v221h390q0 -212 -63.5 -314t-172.5 -102h-78v-95h80q115 0 174.5 -67t59.5 -196v-131q0 -101 -49.5 -163.5t-149.5 -62.5q-98 0 -149.5 61.5t-51.5 164.5q0 124 62 183l-62 67q-125 -98 -125 -250
q0 -147 96 -240q96 -96 230 -96q133 0 228 98q95 95 95 238z" />
    <glyph glyph-name="uni10F4" unicode="&#x10f4;" 
d="M729 -74v156q0 138 -45.5 217.5t-172.5 123.5v10q64 18 107.5 57.5t67 102t33.5 137.5t10 177v162q-155 -135 -306 -135q-96 0 -159 73.5t-63 192.5q0 129 82 202q84 75 181 78v110q-158 0 -273 -121q-111 -120 -111 -283q0 -149 94 -258q95 -107 249 -107q63 0 182 43
q0 -235 -53 -312q-52 -76 -127 -76h-115v-96h113q81 0 131.5 -75.5t50.5 -222.5v-156q0 -226 -199 -226q-201 0 -201 226q0 129 66 177l-66 73q-125 -88 -125 -250q0 -141 97 -238q98 -98 229 -98q128 0 224 90q99 88 99 246z" />
    <glyph glyph-name="uni10F5" unicode="&#x10f5;" horiz-adv-x="910" 
d="M205 1307q0 212 201 212q208 0 208 -277v-119h-138q-169 0 -220 39q-51 42 -51 145zM614 687v-137q0 -141 -54 -216t-154 -75q-201 0 -201 223q0 103 49 152q50 53 212 53h148zM729 687h102v115h-102v206h102v115h-102v119q0 196 -86 292.5t-237 96.5q-155 0 -242 -98
q-84 -94 -84 -226q0 -299 394 -299h140v-206h-148q-205 0 -296 -94q-90 -90 -90 -226q0 -129 80 -232q83 -100 246 -100q127 0 224 94q99 93 99 310v133z" />
    <glyph glyph-name="uni10F6" unicode="&#x10f6;" horiz-adv-x="1209" 
d="M1001 550q0 -291 -153 -291q-89 0 -137 54t-48 153v156q0 105 47.5 162t136.5 57q154 0 154 -291zM380 950q-146 0 -223 -101t-77 -295q0 -166 82 -285q85 -119 203 -119v109q-62 0 -111 80t-49 211q0 141 43.5 216t129.5 75q80 0 123 -57t43 -162v-638q0 -193 -51 -238
q-49 -46 -87 -46v-110q102 0 179 86q78 84 78 312v244q65 -82 184 -82q135 0 208.5 104t73.5 296q0 195 -73 297.5t-213 102.5q-167 0 -229 -164h-9q-56 164 -225 164z" />
    <glyph glyph-name="uni10F7" unicode="&#x10f7;" horiz-adv-x="895" 
d="M665 244l-60 -80q85 -70 85 -221q0 -95 -56 -169t-180 -74q-249 0 -249 273q0 192 244 362q245 172 245 383q0 105 -62 185t-191 80q-139 0 -205 -78q-64 -76 -64 -170q0 -99 66 -177l82 78q-41 32 -41 107q0 55 35.5 91t116.5 36q98 0 125 -47q25 -40 25 -105
q0 -181 -251 -347q-250 -164 -250 -396q0 -167 99 -275q101 -110 275 -110q159 0 258 102q100 97 103 249q-3 178 -150 303z" />
    <glyph glyph-name="uni10F8" unicode="&#x10f8;" 
d="M80 -74v1016h115v-343q0 -111 52 -174.5t149 -63.5q89 0 138 60.5t49 177.5q0 101 -37 171q-35 73 -140 186h119q82 -60 128.5 -151t46.5 -204q0 -166 -80 -254t-226 -88q-112 0 -189 108h-10v-441q0 -122 53 -174t158 -52q74 0 140 60q68 62 68 166q0 101 -41 175l77 30
q79 -88 79 -205q0 -165 -99 -250q-97 -86 -224 -86q-149 0 -237.5 87.5t-88.5 248.5z" />
    <glyph glyph-name="uni10F9" unicode="&#x10f9;" horiz-adv-x="926" 
d="M722 538q0 -134 -72 -228q-74 -97 -188 -97q-109 0 -183 103q-72 100 -72 222q0 127 66 221q68 97 197 97q106 0 179 -85.5t73 -232.5zM80 538q0 -157 78 -263q80 -108 176 -140q-92 -186 -92 -270q0 -125 70 -200t191 -75q106 0 186 71q78 66 78 189q0 85 -57 173
l-92 -66q41 -62 41 -113q0 -74 -33 -109t-111 -35q-88 0 -122 37t-34 130q0 106 88 240h17q168 0 275 137q108 138 108 294q0 163 -114 295q-111 132 -263 132q-164 0 -277 -134q-113 -131 -113 -293z" />
    <glyph glyph-name="uni10FA" unicode="&#x10fa;" 
d="M595 -4l84 82q-92 117 -283 207q-191 93 -191 331q0 107 52.5 166t150.5 59q95 0 146 -54t51 -153q0 -107 -51 -164l94 -72q81 109 81 236q0 147 -87 231.5t-234 84.5t-237.5 -92t-90.5 -240q0 -242 234 -403q-108 -44 -150 -139l90 -58q52 124 163 124q86 0 178 -146z
" />
    <glyph glyph-name="uni10FB" unicode="&#x10fb;" horiz-adv-x="772" 
d="M80 257v-159h158v159h-158zM80 987v-158h158v158h-158zM534 618v-158h158v158h-158z" />
    <glyph glyph-name="uni10FC" unicode="&#x10fc;" horiz-adv-x="577" 
d="M406 1120q0 -205 -117 -205q-119 0 -119 197q3 183 113 183q123 0 123 -175zM293 1375q-64 0 -123 -74v166q0 80 68 80l257 -2v82h-236q-179 0 -179 -180v-329q0 -283 209 -283q100 0 154 73t54 212q0 126 -44 190.5t-160 64.5z" />
    <glyph glyph-name="figuredash" unicode="&#x2012;" horiz-adv-x="1234" 
d="M1293 531v105h-1293v-105h1293z" />
    <glyph glyph-name="endash" unicode="&#x2013;" horiz-adv-x="1234" 
d="M-23 499h1291v100h-1291v-100z" />
    <glyph glyph-name="emdash" unicode="&#x2014;" horiz-adv-x="2217" 
d="M-23 503h2334v100h-2334v-100z" />
    <glyph glyph-name="quoteleft" unicode="&#x2018;" horiz-adv-x="501" 
d="M359 1599l-33 34q-86 -79 -135 -178.5t-49 -196.5q0 -142 108 -142q35 0 64 25.5t29 69.5q0 36 -25 57t-62 21h-10q-14 0 -18 -2q-4 36 -4 47q0 117 135 265z" />
    <glyph glyph-name="quoteright" unicode="&#x2019;" horiz-adv-x="501" 
d="M142 1149l34 -33q86 78 134.5 178t48.5 194q0 145 -107 145q-37 0 -65.5 -25.5t-28.5 -72.5q0 -34 25.5 -55t62.5 -21h10q13 0 15 2q0 -4 3 -22t3 -27q0 -110 -135 -263z" />
    <glyph glyph-name="quotesinglbase" unicode="&#x201a;" horiz-adv-x="501" 
d="M142 -162l34 -33q86 78 134.5 178t48.5 194q0 145 -107 145q-37 0 -65.5 -25.5t-28.5 -72.5q0 -35 25.5 -56.5t62.5 -21.5h10q13 0 15 2q1 -5 2.5 -14.5t2.5 -17.5t1 -15q0 -113 -135 -263z" />
    <glyph glyph-name="quotedblleft" unicode="&#x201c;" horiz-adv-x="801" 
d="M657 1599l-33 34q-84 -80 -132.5 -179t-48.5 -196q0 -142 105 -142q37 0 66.5 25t29.5 70q0 35 -26 56.5t-62 21.5h-12q-11 0 -15 -2q-4 36 -4 47q0 117 132 265zM359 1599l-33 34q-86 -79 -135 -178.5t-49 -196.5q0 -142 108 -142q35 0 64 25.5t29 69.5q0 36 -25 57
t-62 21h-10q-14 0 -18 -2q-4 36 -4 47q0 117 135 265z" />
    <glyph glyph-name="quotedblright" unicode="&#x201d;" horiz-adv-x="801" 
d="M142 1149l34 -33q86 78 134.5 178t48.5 194q0 145 -107 145q-37 0 -65.5 -25.5t-28.5 -72.5q0 -34 25.5 -55t62.5 -21h10q13 0 15 2q0 -4 3 -22t3 -27q0 -110 -135 -263zM443 1149l33 -33q85 76 133 176.5t48 195.5q0 145 -105 145q-38 0 -66 -25t-28 -73q0 -34 25.5 -55
t62.5 -21h10q13 0 15 2q4 -36 4 -49q0 -58 -30 -119t-102 -144z" />
    <glyph glyph-name="quotedblbase" unicode="&#x201e;" horiz-adv-x="801" 
d="M142 -162l34 -33q86 78 134.5 178t48.5 194q0 145 -107 145q-37 0 -65.5 -25.5t-28.5 -72.5q0 -35 25.5 -56.5t62.5 -21.5h10q13 0 15 2q1 -5 2.5 -14.5t2.5 -17.5t1 -15q0 -113 -135 -263zM443 -162l33 -33q85 76 133 176.5t48 195.5q0 145 -105 145q-38 0 -66 -25
t-28 -73q0 -35 25.5 -56.5t62.5 -21.5h10q13 0 15 2q4 -32 4 -47q0 -118 -132 -263z" />
    <glyph glyph-name="dagger" unicode="&#x2020;" horiz-adv-x="1084" 
d="M593 1381h-92v-447l-388 -99v-82l380 99v-953h90v946l390 -102v82l-380 101v455z" />
    <glyph glyph-name="bullet" unicode="&#x2022;" horiz-adv-x="776" 
d="M152 845q0 -98 77 -171t181 -73q105 0 184 73t79 171q0 99 -78.5 170t-184.5 71q-105 0 -181.5 -70.5t-76.5 -170.5z" />
    <glyph glyph-name="ellipsis" unicode="&#x2026;" horiz-adv-x="1854" 
d="M337 154h164v160h-164v-160zM872 154h168v160h-168v-160zM1410 154h168v160h-168v-160z" />
    <glyph glyph-name="guilsinglleft" unicode="&#x2039;" horiz-adv-x="737" 
d="M283 610l300 465h-97l-349 -465l349 -458h95z" />
    <glyph glyph-name="guilsinglright" unicode="&#x203a;" horiz-adv-x="737" 
d="M454 616l-300 -464h96l337 468l-337 455h-96z" />
    <glyph glyph-name="Euro" unicode="&#x20ac;" horiz-adv-x="1234" 
d="M1042 747q12 10 13 8l-2 -2h-760v201h797q0 19 2 30t7.5 28.5t8.5 27.5h-804q71 231 224 352t381 122q140 0 302 -80q2 10 11 38.5t13.5 50t5.5 39.5q-132 59 -328 72q-274 -24 -488 -173q-221 -160 -279 -421l-138 -8q-2 -12 -4 -26q-4 -11 -6 -23l-2 -3q-1 -3 -2.5 -10
t-1.5 -16h145v-201h-129q-2 -2 -2 -6l-2 -10q0 -25 -12 -62l168 -10q66 -262 279 -423q204 -152 470 -174q144 0 287 47v137q-135 -69 -307 -69q-176 0 -335 88q-85 53 -148 153.5t-96 240.5q717 0 720 12v13l4 14q8 31 8 43z" />
    <glyph glyph-name="trademark" unicode="&#x2122;" horiz-adv-x="2217" 
d="M573 821h80v743h318v72h-715v-72h317v-743zM1153 821h70v734q30 0 68 15l264 -749h78l5 20q19 69 63 177q8 26 88 262q72 224 97 275q16 -5 33.5 -6t34.5 -6v-722h67v815h-160q-20 -70 -115 -351l-10 -31q-26 -47 -70 -199q-13 -41 -38 -111t-34 -97l-275 789h-166v-815z
" />
    <glyph glyph-name="ring" horiz-adv-x="770" 
d="M273 1430q0 42 42 75.5t93 33.5q50 0 89 -34.5t39 -76.5q0 -45 -38.5 -82t-89.5 -33q-52 -4 -91 33.5t-44 83.5zM199 1430q0 -85 58.5 -145t150.5 -60q82 0 143 60t61 143q0 79 -61.5 138t-144.5 59q-86 0 -146.5 -59t-60.5 -136z" />
  </font>
</defs>
</svg>
